<?xml version="1.0" encoding="UTF-8" standalone="no"?><!DOCTYPE svg PUBLIC "-//W3C//DTD SVG 1.1//EN" "http://www.w3.org/Graphics/SVG/1.1/DTD/svg11.dtd"><svg width="100%" height="100%" viewBox="0 0 1000 1000" version="1.1" xmlns="http://www.w3.org/2000/svg" xmlns:xlink="http://www.w3.org/1999/xlink" xml:space="preserve" xmlns:serif="http://www.serif.com/" style="fill-rule:evenodd;clip-rule:evenodd;stroke-linejoin:round;stroke-miterlimit:1.41421;"><rect id="Brain_2" x="0" y="0" width="1000" height="1000" style="fill:none;"/><circle cx="558.504" cy="601.375" r="176.255" style="fill:#f0f;fill-opacity:0.14902;"/><circle cx="370.874" cy="332.68" r="101.375" style="fill:#0ff;fill-opacity:0.14902;"/><path d="M676.374,785.412l-78.048,0c-3.228,-0.141 -3.384,-0.261 -5.657,-2.344l-69.585,-69.585c-2.183,-2.383 -2.209,-2.578 -2.343,-5.657l0,-47.881c0.292,-6.326 8.422,-10.441 13.389,-5.913c1.595,1.454 2.458,2.603 2.611,5.913l0,44.567l64.899,64.9l71.421,0l25.309,-25.31c-12.886,-15.13 -3.986,-45.321 20.233,-45.779c0.354,-0.003 0.354,-0.003 0.708,0c18.138,0.343 33.005,21.75 24.46,39.474c-5.341,11.078 -18.919,16.685 -30.921,14.453l-30.819,30.818c-2.382,2.183 -2.577,2.209 -5.657,2.344Zm-248.222,-570.822c38.05,0.36 73.035,32.93 73.425,73.425c0.421,141.323 0.421,282.647 0,423.97c-0.28,29.048 -19.147,56.988 -45.972,67.957c-41.918,17.141 -97.247,-11.874 -101.577,-62.261c-39.584,7.719 -83.528,-11.212 -105.095,-46.21c-12.254,-19.887 -17.163,-43.951 -13.908,-67.188c0,0 -8.403,-6.307 -14.357,-11.963c-33.877,-32.184 -47.832,-83.551 -34.39,-128.684c8.088,-27.154 25.57,-51.307 48.73,-67.726c0,0 -0.924,-7.471 -0.997,-13.312c-0.582,-47.133 35.806,-92.091 82.996,-100.531c12.189,-2.18 24.765,-2.079 36.976,0.244c0,0 0.619,-5.884 1.684,-10.496c7.309,-31.64 37.261,-56.472 70.581,-57.213c0.635,-0.01 1.269,-0.014 1.904,-0.012Zm-58.278,493.301l0.007,0.058c0.159,1.437 -0.182,6.693 0.358,10.938c3.37,26.486 27.314,48.9 54.083,50.429c30.92,1.766 60.736,-24.575 61.252,-57.058c1.363,-141.374 0.425,-282.762 0.003,-424.142c-0.287,-29.855 -25.809,-57.226 -57.526,-57.526c-0.25,-0.001 -0.5,-0.001 -0.75,0c-30.3,0.287 -57.759,26.697 -57.514,58.677c0.42,3.263 0.676,6.829 1.504,10.018c2.7,10.396 9.584,19.38 18.104,26.083c0,0 6.12,8.862 -0.748,13.097c-2.76,1.701 -6.477,1.477 -9.145,-0.522c-0.502,-0.396 -0.502,-0.395 -1.001,-0.794c-11.878,-9.65 -20.356,-23.028 -23.429,-37.958c-2.403,-0.631 -5.026,-1.379 -7.573,-1.761c-34.411,-5.155 -71.05,13.226 -87.498,43.933c-8.767,16.365 -11.816,35.632 -8.841,53.939c0.929,5.713 3.826,12.497 7.311,18.871c7.551,13.812 20.138,25.305 36.418,28.228c0,0 2.477,0.606 3.951,1.939c5.154,4.659 1.265,15.381 -8.133,13.555c-23.099,-4.658 -41.398,-22.879 -50.847,-45.627c-18.14,14.278 -31.864,34.188 -38.372,56.356c-12.429,42.339 3.022,91.027 38.325,119.052c9.228,-22.117 26.914,-40.971 51.663,-45.596c0,0 0.312,-0.289 2.454,-0.181c7.803,0.792 10.589,13.862 -0.613,16.122c-21.113,4.414 -36.317,24.677 -41.954,45.105c-0.368,3.29 -0.987,6.875 -1.195,10.216c-2.559,41.279 28.623,82.04 70.701,89.021c7.63,1.265 15.436,1.483 23.125,0.657c3.532,-0.379 7.037,-0.987 10.494,-1.807c2.46,-16.203 11.375,-31.102 24.522,-41.531c1.65,-1.309 3.577,-2.123 5.732,-2.094c6.92,0.417 10.245,9.722 3.394,15.288c-10.503,8.672 -17.492,21.041 -18.262,35.015Zm348.932,6.431c-8.129,0.154 -14.471,10.689 -9.34,18.088c5.613,8.093 23.123,4.14 20.845,-8.602c-0.945,-5.286 -5.946,-9.523 -11.505,-9.486Zm-129.241,-66.247l0,-27.721c0.059,-2.118 0.875,-4.104 2.343,-5.657l33.609,-33.61c1.708,-1.61 3.935,-2.453 6.355,-2.312c3.71,0.433 4.226,1.468 5.279,2.651c2.722,3.059 2.904,7.558 -0.32,10.975l-31.266,31.267l0,24.575c14.334,5.081 24.118,22.914 16.814,38.064c-7.451,15.456 -30.939,20.262 -43.811,7.988c-13.486,-12.861 -8.113,-40.082 10.997,-46.22Zm193.9,-117.698c-4.042,-1.05 -7.839,-3.033 -10.996,-6.043c-15.144,-14.438 -6.511,-46.983 18.642,-47.462c0.354,-0.002 0.354,-0.002 0.707,0c18.158,0.346 33.005,21.751 24.461,39.474c-3.269,6.78 -9.624,11.511 -16.814,13.649l0,87.713c-0.141,3.228 -0.261,3.384 -2.344,5.657l-60.392,60.393c-2.382,2.182 -2.578,2.208 -5.657,2.343l-70.658,0c-4.802,-0.21 -5.928,-2.268 -6.928,-4c-2.772,-4.801 -0.027,-11.697 6.928,-12l67.344,0l55.707,-55.707l0,-84.017Zm-186.051,132.455c-9.847,0.189 -16.387,17.063 -4.331,22.167c8.266,3.5 19.709,-6.211 14.759,-15.875c-1.946,-3.798 -6.038,-6.319 -10.428,-6.292Zm-212.71,-99.028c1.24,0.126 1.441,0.222 1.98,0.407c2.899,0.989 4.834,3.733 5.423,6.885c0.067,0.347 0.067,0.347 0.137,0.693c1.649,7.897 5.315,15.296 10.651,21.424c9.018,10.356 21.63,17.1 34.868,20.644c0,0 5.713,2.339 6.17,7.024c0.512,5.253 -5.018,9.86 -10.578,8.359c-25.964,-7.01 -50.269,-25.542 -56.491,-52.876c-1.266,-5.564 0.723,-12.108 6.625,-12.559c0.783,-0.06 0.966,-0.013 1.215,-0.001Zm275.523,-56.969c-0.382,1.327 -0.883,2.644 -1.508,3.941c-7.452,15.456 -30.936,20.26 -43.809,7.988c-15.149,-14.44 -6.514,-46.983 18.641,-47.462c0.354,-0.002 0.353,-0.002 0.708,0c11.43,0.217 21.556,8.788 25.35,19.533l15.091,0c0.174,0.006 0.349,0.012 0.523,0.017c2.876,0.283 3.561,0.854 5.134,2.326l25.871,25.872c1.44,1.537 2.274,3.53 2.343,5.657l0,73.406c-0.163,4.672 -1.496,5.071 -3.074,6.304c-4.693,3.666 -12.682,0.677 -12.926,-6.304l0,-70.093l-21.185,-21.185l-11.159,0Zm-130.702,-127.254c3.98,0.591 7.015,3.878 7.216,7.962l0,197.51c-0.312,6.339 -8.908,10.407 -13.657,5.657c-1.42,-1.42 -2.185,-2.435 -2.343,-5.657l0,-197.51c0.223,-4.538 3.943,-8.199 8.784,-7.962Zm261.789,113.29c-9.848,0.187 -16.385,17.065 -4.332,22.166c8.269,3.5 19.722,-6.185 14.759,-15.875c-1.945,-3.798 -6.035,-6.319 -10.427,-6.291Zm-157.56,-5.57c-9.876,0.188 -16.276,17.111 -4.332,22.166c8.416,3.562 19.98,-6.557 14.563,-16.242c-2.039,-3.646 -5.79,-5.952 -10.231,-5.924Zm-263.032,-3.465c10.238,0.067 20.522,3.301 28.046,10.396c4.76,4.489 2.129,14.286 -5.289,14.15c-4.274,-0.078 -7.11,-4.306 -11.061,-6.161c-9.788,-4.598 -21.322,-2.31 -30.871,1.416c0,0 -4.289,1.147 -7.197,-0.699c-4.951,-3.143 -4.504,-11.937 1.747,-14.349c0.286,-0.111 0.572,-0.219 0.86,-0.325c7.601,-2.808 15.635,-4.446 23.765,-4.428Zm374.182,-181.989c2.999,0.395 3.11,0.618 4.959,2.313l41.944,41.944c2.183,2.382 2.209,2.577 2.343,5.656l0,74.423c-0.141,3.228 -0.261,3.384 -2.343,5.657l-51.872,51.871c-8.45,8.096 -20.235,-2.221 -11.313,-11.313l49.528,-49.529l0,-67.795l-37.257,-37.257l-12.647,0c0,0 -7.163,-1.278 -7.928,-6.926c-0.607,-4.481 3.241,-8.864 7.928,-9.074l15.96,0c0.233,0.01 0.465,0.02 0.698,0.03Zm-167.31,66.931c-4.041,-1.05 -7.837,-3.033 -10.995,-6.043c-15.149,-14.44 -6.514,-46.983 18.641,-47.462c0.354,-0.003 0.354,-0.003 0.709,0c18.147,0.345 33.006,21.747 24.46,39.474c-3.27,6.78 -9.624,11.51 -16.815,13.648l0,24.855l31.267,31.266c0,0 1.928,2.244 2.259,4.498c0.94,6.423 -7.559,12.49 -13.573,6.816l-33.609,-33.61c-1.455,-1.538 -2.285,-3.55 -2.344,-5.656l0,-27.786Zm-193.058,3.531c1.915,0.153 3.771,0.831 5.637,1.42c19.796,6.252 38.227,18.556 47.83,37.443c2.937,5.776 5.458,12.032 5.944,18.391c0.438,5.723 -6.826,10.947 -12.377,7.291c-3.344,-2.203 -3.597,-6.92 -4.837,-10.996c-4.854,-15.95 -19.298,-27.965 -34.328,-34.279c-3.208,-1.348 -6.501,-2.504 -9.86,-3.418c0,0 -5.679,-2.127 -6.358,-6.684c-0.676,-4.532 3.12,-9.077 7.944,-9.18c0.135,0.004 0.27,0.008 0.405,0.012Zm213.491,-141.721l-63.717,61.793c-9.399,7.746 -20.05,-2.525 -11.139,-11.486l66.045,-64.049c2.366,-2.107 2.55,-2.128 5.569,-2.258l38.799,0c0.227,0.01 0.453,0.02 0.68,0.029c2.931,0.376 3.043,0.598 4.862,2.201l50.355,48.361c1.47,1.53 2.333,2.646 2.459,5.77l0,35.037c14.327,5.081 24.117,22.915 16.814,38.064c-7.452,15.456 -30.937,20.259 -43.81,7.989c-13.474,-12.844 -8.112,-40.084 10.996,-46.222l0,-31.46l-45.575,-43.769l-32.338,0Zm-12.583,100.684c-9.876,0.188 -16.277,17.11 -4.332,22.166c8.415,3.562 19.979,-6.557 14.562,-16.242c-2.039,-3.646 -5.804,-5.953 -10.23,-5.924Zm98.73,-10.694c-0.206,0.009 -0.412,0.01 -0.616,0.004c-9.759,0.443 -15.954,17.141 -4.1,22.159c8.413,3.563 19.979,-6.557 14.562,-16.242c-1.98,-3.54 -5.574,-5.817 -9.846,-5.921Z" style="fill:url(#_Linear1);"/><defs><linearGradient id="_Linear1" x1="0" y1="0" x2="1" y2="0" gradientUnits="userSpaceOnUse" gradientTransform="matrix(637.544,0,0,570.823,181.215,500)"><stop offset="0" style="stop-color:#0ff;stop-opacity:1"/><stop offset="1" style="stop-color:#f0f;stop-opacity:1"/></linearGradient></defs></svg>